<?xml version="1.0" encoding="UTF-8"?>
<svg width="1360px" height="375px" viewBox="0 0 1360 375" xmlns="http://www.w3.org/2000/svg" xmlns:xlink="http://www.w3.org/1999/xlink" version="1.1">
 <!-- Generated by Pixelmator Pro 1.2.4 -->
 <path id="path" d="M531.002 360.801 C516.069 360.801 502.334 358.066 489.801 352.599 477.268 347.133 466.335 339.466 457.002 329.599 447.669 319.733 440.401 308.134 435.201 294.801 430.001 281.467 427.401 266.932 427.401 251.199 427.401 236.532 429.935 222.6 435.002 209.4 440.069 196.2 447.135 184.667 456.201 174.801 465.268 164.934 476.068 157.134 488.602 151.4 501.135 145.667 515.001 142.801 530.201 142.801 555.801 142.801 577.001 151.733 593.801 169.599 L593.801 149.199 666.602 149.199 666.602 354.4 593.801 354.4 593.801 331.599 C578.334 351.066 557.402 360.801 531.002 360.801 Z M200.602 354.4 L200.602 22.4 273.002 22.4 273.002 223.199 349.002 149.199 448.201 149.199 345.401 244 454.201 354.4 352.602 354.4 273.002 270.801 273.002 354.4 200.602 354.4 Z M683.801 354.4 L683.801 22.4 756.201 22.4 756.201 354.4 683.801 354.4 Z M773.801 354.4 L773.801 149.199 846.201 149.199 846.201 175.199 C856.068 163.199 866.068 155.133 876.201 151 886.335 146.866 898.201 144.801 911.801 144.801 926.201 144.801 938.534 147.134 948.801 151.801 959.068 156.467 967.802 163.066 975.002 171.599 980.869 178.533 984.869 186.267 987.002 194.801 989.135 203.334 990.201 213.066 990.201 224 L990.201 354.4 917.801 354.4 917.801 250.801 C917.801 240.667 917.068 232.466 915.602 226.199 914.135 219.932 911.534 214.932 907.801 211.199 904.601 207.999 901.002 205.734 897.002 204.4 893.002 203.067 888.734 202.4 884.201 202.4 871.935 202.4 862.535 206.067 856.002 213.4 849.469 220.734 846.201 231.201 846.201 244.801 L846.201 354.4 773.801 354.4 Z M1007.401 354.4 L1007.401 149.199 1079.801 149.199 1079.801 354.4 1007.401 354.4 Z M1097.401 354.4 L1097.401 22.4 1169.801 22.4 1169.801 223.199 1245.801 149.199 1345.002 149.199 1242.201 244 1351.002 354.4 1249.401 354.4 1169.801 270.801 1169.801 354.4 1097.401 354.4 Z M549.401 298.4 C555.8 298.4 561.868 297.201 567.602 294.801 573.335 292.401 578.267 289.067 582.401 284.801 586.534 280.534 589.867 275.6 592.401 270 594.934 264.4 596.201 258.4 596.201 252 596.201 245.6 594.934 239.534 592.401 233.801 589.867 228.067 586.534 223.067 582.401 218.801 578.267 214.534 573.335 211.201 567.602 208.801 561.868 206.401 555.8 205.199 549.401 205.199 542.734 205.199 536.534 206.401 530.801 208.801 525.068 211.201 520.135 214.534 516.002 218.801 511.869 223.067 508.601 227.934 506.201 233.4 503.801 238.867 502.602 244.799 502.602 251.199 502.602 257.866 503.801 264.067 506.201 269.801 508.601 275.534 511.869 280.534 516.002 284.801 520.135 289.067 525.068 292.401 530.801 294.801 536.534 297.201 542.734 298.4 549.401 298.4 Z M1043.401 111.199 C1037.801 111.199 1032.535 110.133 1027.602 108 1022.668 105.866 1018.335 102.932 1014.602 99.199 1010.868 95.466 1007.934 91.132 1005.801 86.199 1003.668 81.266 1002.602 76 1002.602 70.4 1002.602 64.8 1003.668 59.533 1005.801 54.599 1007.934 49.666 1010.868 45.333 1014.602 41.599 1018.335 37.866 1022.668 34.934 1027.602 32.801 1032.535 30.667 1037.801 29.599 1043.401 29.599 1049 29.599 1054.268 30.667 1059.201 32.801 1064.135 34.934 1068.468 37.866 1072.201 41.599 1075.935 45.333 1078.869 49.666 1081.002 54.599 1083.135 59.533 1084.201 64.8 1084.201 70.4 1084.201 76 1083.135 81.266 1081.002 86.199 1078.869 91.132 1075.935 95.466 1072.201 99.199 1068.468 102.932 1064.135 105.866 1059.201 108 1054.268 110.133 1049 111.199 1043.401 111.199 Z M165.001 202 C151.668 195.066 138.601 191.6 125.801 191.6 119.135 191.6 113.735 192.933 109.601 195.6 105.468 198.266 103.401 201.866 103.401 206.4 103.401 208.8 103.735 210.733 104.401 212.2 105.068 213.666 106.535 215.066 108.801 216.4 111.068 217.733 114.401 218.933 118.801 220 123.201 221.066 129.001 222.4 136.201 224 156.201 228 171.135 235.133 181.001 245.4 190.868 255.666 195.801 268.8 195.801 284.8 195.801 296.8 193.401 307.6 188.601 317.2 183.801 326.8 177.135 334.866 168.601 341.4 160.068 347.933 149.801 353 137.801 356.6 125.801 360.2 112.601 362 98.201 362 70.468 362 43.135 354.133 16.201 338.4 L42.601 287.2 C62.868 301.066 82.068 308 100.201 308 106.868 308 112.335 306.533 116.601 303.6 120.868 300.666 123.001 296.933 123.001 292.4 123.001 289.733 122.668 287.533 122.001 285.8 121.335 284.066 119.935 282.466 117.801 281 115.668 279.533 112.535 278.2 108.401 277 104.268 275.8 98.868 274.533 92.201 273.2 69.801 268.666 54.135 261.933 45.201 253 36.268 244.066 31.801 231.733 31.801 216 31.801 204.533 33.935 194.2 38.201 185 42.468 175.8 48.601 168 56.601 161.6 64.601 155.2 74.268 150.266 85.601 146.8 96.935 143.333 109.535 141.6 123.401 141.6 146.068 141.6 168.068 146 189.401 154.8 Z" fill="#000000" fill-opacity="1" stroke="none"/>
</svg>
